<mxfile host="app.diagrams.net" modified="2023-12-04T06:23:25.274Z" agent="Mozilla/5.0 (Macintosh; Intel Mac OS X 10_15_7) AppleWebKit/537.36 (KHTML, like Gecko) Chrome/117.0.0.0 Safari/537.36" version="22.1.5" etag="lmb-P4j2LWRmY4C0Gtz9" type="github">
  <diagram name="第 1 页" id="YZPl7NJgei2vNjb533rh">
    <mxGraphModel>
      <root>
        <mxCell id="0" />
        <mxCell id="1" parent="0" />
      </root>
    </mxGraphModel>
  </diagram>
</mxfile>
